<svg xmlns="http://www.w3.org/2000/svg" version="1.1" xmlns:xlink="http://www.w3.org/1999/xlink" xmlns:svgjs="http://svgjs.dev/svgjs" viewBox="0 0 5.76396943697469 6.612531853462575"><g transform="matrix(1,0,0,1,0.5142314225889071,4.865300430873667)"><rect width="6.612531853462575" height="6.612531853462575" x="-0.9385126308328497" y="-4.865300430873667" fill="#ffffff"></rect><g><path d=" M 1.3275000000000001 0.3809999999999999 L 1.113 1.2225 L 0.783 1.2225 L 0.666 0.7124999999999999 L 0.5445 1.2225 L 0.216 1.2225 L 0.003 0.3809999999999999 L 0.2955 0.3809999999999999 L 0.39 0.9389999999999998 L 0.5145 0.3809999999999999 L 0.8295 0.3809999999999999 L 0.9585 0.9404999999999999 L 1.0515 0.3809999999999999 L 1.3275000000000001 0.3809999999999999 M 2.2260146484375003 0.861 L 1.6695146484375 0.861 Q 1.6740146484375003 0.9299999999999999 1.7077646484375002 0.9637499999999999 Q 1.7415146484375001 0.9974999999999999 1.7940146484375001 0.9974999999999999 Q 1.8675146484375 0.9974999999999999 1.8990146484375001 0.9315 L 2.2125146484375002 0.9315 Q 2.1930146484375 1.0185 2.1367646484375 1.0867499999999999 Q 2.0805146484375 1.1549999999999998 1.9950146484375 1.194 Q 1.9095146484375003 1.2329999999999999 1.8060146484375001 1.2329999999999999 Q 1.6815146484375 1.2329999999999999 1.5847646484375002 1.1804999999999999 Q 1.4880146484375 1.128 1.4332646484375 1.0305 Q 1.3785146484375002 0.9329999999999999 1.3785146484375002 0.8009999999999999 Q 1.3785146484375002 0.6689999999999999 1.4325146484375002 0.5722499999999999 Q 1.4865146484375003 0.4754999999999999 1.5832646484375001 0.42299999999999993 Q 1.6800146484375 0.37049999999999994 1.8060146484375001 0.37049999999999994 Q 1.9305146484375002 0.37049999999999994 2.0265146484375003 0.4214999999999999 Q 2.1225146484375 0.4724999999999999 2.1765146484375 0.5677499999999999 Q 2.2305146484375 0.6629999999999999 2.2305146484375 0.7919999999999999 Q 2.2305146484375 0.8264999999999999 2.2260146484375003 0.861 M 1.9305146484375002 0.7184999999999999 Q 1.9305146484375002 0.6644999999999999 1.8945146484375002 0.6337499999999999 Q 1.8585146484375001 0.6029999999999999 1.8045146484375 0.6029999999999999 Q 1.7505146484375 0.6029999999999999 1.7160146484375 0.6322499999999999 Q 1.6815146484375 0.6614999999999999 1.6710146484375001 0.7184999999999999 L 1.9305146484375002 0.7184999999999999 M 2.7570563964843755 0.4042499999999999 Q 2.8200563964843752 0.37049999999999994 2.9055563964843754 0.37049999999999994 Q 3.006056396484375 0.37049999999999994 3.087806396484375 0.42299999999999993 Q 3.169556396484375 0.4754999999999999 3.216806396484375 0.573 Q 3.264056396484375 0.6704999999999999 3.264056396484375 0.8009999999999999 Q 3.264056396484375 0.9315 3.216806396484375 1.02975 Q 3.169556396484375 1.128 3.087806396484375 1.1804999999999999 Q 3.006056396484375 1.2329999999999999 2.9055563964843754 1.2329999999999999 Q 2.8200563964843752 1.2329999999999999 2.7570563964843755 1.19925 Q 2.6940563964843753 1.1655 2.6595563964843754 1.1055 L 2.6595563964843754 1.2225 L 2.3655563964843753 1.2225 L 2.3655563964843753 0.11249999999999982 L 2.6595563964843754 0.11249999999999982 L 2.6595563964843754 0.4979999999999999 Q 2.6940563964843753 0.43799999999999994 2.7570563964843755 0.4042499999999999 M 2.9213063964843755 0.67275 Q 2.877056396484375 0.6269999999999999 2.8125563964843754 0.6269999999999999 Q 2.748056396484375 0.6269999999999999 2.7038063964843753 0.6734999999999999 Q 2.6595563964843754 0.7199999999999999 2.6595563964843754 0.8009999999999999 Q 2.6595563964843754 0.8835 2.7038063964843753 0.9299999999999999 Q 2.748056396484375 0.9764999999999999 2.8125563964843754 0.9764999999999999 Q 2.877056396484375 0.9764999999999999 2.9213063964843755 0.9292499999999999 Q 2.9655563964843754 0.8819999999999999 2.9655563964843754 0.8009999999999999 Q 2.9655563964843754 0.7184999999999999 2.9213063964843755 0.67275 M 3.4237954101562504 0.26024999999999987 Q 3.3765454101562504 0.2174999999999998 3.3765454101562504 0.1529999999999998 Q 3.3765454101562504 0.08699999999999997 3.4237954101562504 0.04349999999999987 Q 3.4710454101562505 0 3.5490454101562503 0 Q 3.6255454101562505 0 3.6727954101562506 0.04349999999999987 Q 3.7200454101562506 0.08699999999999997 3.7200454101562506 0.1529999999999998 Q 3.7200454101562506 0.2174999999999998 3.6727954101562506 0.26024999999999987 Q 3.6255454101562505 0.30299999999999994 3.5490454101562503 0.30299999999999994 Q 3.4710454101562505 0.30299999999999994 3.4237954101562504 0.26024999999999987 M 3.6945454101562505 0.3809999999999999 L 3.6945454101562505 1.2225 L 3.4005454101562504 1.2225 L 3.4005454101562504 0.3809999999999999 L 3.6945454101562505 0.3809999999999999 M 4.4025205078125005 1.2225 L 4.2510205078125 1.011 L 4.131020507812501 1.2225 L 3.8085205078125006 1.2225 L 4.0890205078125 0.7859999999999999 L 3.7965205078125006 0.3809999999999999 L 4.126520507812501 0.3809999999999999 L 4.2780205078125 0.5924999999999999 L 4.3995205078125 0.3809999999999999 L 4.7220205078125 0.3809999999999999 L 4.435520507812501 0.8099999999999998 L 4.7325205078125006 1.2225 L 4.4025205078125005 1.2225" fill="#1c3423" fill-rule="nonzero"></path></g><g></g><g clip-path="url(#SvgjsClipPath1002)"><g clip-path="url(#SvgjsClipPath10009c0a24d0-cedf-4394-a72a-ba12e826569d)"><path d=" M 2.246569457907544 -3.360781002720941 L 2.230889837233588 -3.3698446474381885 L 1.927451613959121 -3.545022604225944 L 1.8783285983391729 -3.5733767868975472 L 1.6755356063768119 -3.6904407863806004 L 1.659528822056645 -3.6996861886790757 L 1.6564631775199279 -3.70145529580303 L 1.5560118209611349 -3.759448081386912 L 1.4495139955334815 -3.820954846874541 L 1.1552484715249975 -3.6510720942865675 C 0.9707524094062744 -3.5445863860309954 0.7955986869626823 -3.443492819351862 0.5919453757825064 -3.3258229612647137 L 0.5919453757825064 -1.275246047020048 C 0.7955986869626823 -1.1575761889329002 0.9707524094062744 -1.056470505081685 1.1552484715249975 -0.9499847968261128 L 1.3889766038124054 -0.8150964372106109 L 1.3889766038124054 -2.83065472413864 C 1.3889771536735727 -2.8522994174248355 1.4005246797641238 -2.8722997326136372 1.4192695340171446 -2.8831220792532077 C 1.587467999685699 -2.980265447833628 1.7329225333566018 -3.064237450361064 1.878377067027502 -3.148185218544336 C 1.9969557130207927 -3.216719943839456 2.1156312963907364 -3.285145614585838 2.246569457907544 -3.360781002720941 Z M 1.5101483246312153 -1.8053844427744306 C 1.6655389394092608 -1.7156204319918547 1.802366046557863 -1.6366407043621525 1.9389508102648276 -1.557806382797434 C 2.0755355739717922 -1.4789720612327164 2.2122415093995755 -1.4000650366355054 2.367741178726356 -1.310252557164603 C 2.571394489906532 -1.427922415251751 2.7465603295222056 -1.529028099102966 2.93106850881301 -1.6355259245306213 L 3.225334032821494 -1.8053844427744319 L 3.225334032821494 -2.7956845655103315 L 2.93106850881301 -2.9655430837541417 C 2.746596681038453 -3.072028792009714 2.5713581383902873 -3.1731708273771755 2.367741178726356 -3.2908164511201603 C 2.212338446776229 -3.2010645575096657 2.0755234567997083 -3.1220848298799653 1.9389508102648276 -3.0432505083152463 C 1.8023781637299445 -2.964416186750526 1.665647993957998 -2.8854970449812347 1.5101483246312153 -2.795696682682414 Z M 3.84482445550767 -3.4982503199898827 C 3.6528884497306726 -3.6090497415066047 3.4707188846516703 -3.714178326489005 3.2556511973703612 -3.8384520433607783 L 2.9311169775013393 -4.025795640918743 C 2.7466087982105347 -4.132293466346397 2.571442958594861 -4.233399150197614 2.367789647414685 -4.351069008284761 C 2.2122899780879024 -4.261256528813858 2.0756446285205294 -4.1823858557328935 1.9389992789531567 -4.103503065479848 C 1.8203600470994579 -4.0350168088730545 1.7017329324178407 -3.9665790209545904 1.5707463022127066 -3.8909193984753245 L 1.6167915561238533 -3.8642616198951854 L 1.9389992789531567 -3.678250911266227 C 2.0844053439357304 -3.5943031430829553 2.22990834629496 -3.51033114055552 2.398094694791468 -3.4131877719750774 C 2.614810317475912 -3.287968915680918 2.7981188967306116 -3.182161769061931 2.9916907207386627 -3.070429325294905 L 3.3162612921239316 -2.883061493392777 C 3.335006146376945 -2.8722391467531914 3.346553672467481 -2.8522388315643825 3.3465542223286353 -2.8305941382782294 L 3.3465542223286353 -1.8753489943752126 L 3.470076674531332 -1.9466949035933294 L 3.4818788001390844 -1.9535047543033457 L 3.5237557468540635 -1.9777390984671084 L 3.8448608070239145 -2.16313183131989 L 4.143597567530611 -2.3355713072171405 L 4.143597567530611 -3.325774492576386 Z M 3.316237057779766 -1.7179469290315756 L 2.9916422520503336 -1.5305669799573645 C 2.7980704280422852 -1.4188466533624204 2.6147982003038304 -1.3130395067434342 2.3980583432752205 -1.1878206504492734 C 2.3793130128282103 -1.1769980288696447 2.3562178133128255 -1.1769980288696447 2.3374724828658158 -1.1878206504492734 C 2.169298251541389 -1.2849761362017973 2.023843717870484 -1.3689360215571509 1.8783891841995835 -1.4528837897404245 C 1.759762069517969 -1.5213579291751338 1.6411349548363519 -1.589807834265681 1.5101725589753785 -1.665455339572865 L 1.5101725589753785 -0.7451318856098279 C 1.6656722283021588 -0.6553315233110069 1.8023054606974525 -0.5764487330579593 1.9389750446089908 -0.4975659428049126 C 2.075644628520527 -0.4186831525518673 2.212265743743739 -0.33982459664298403 2.3677654130705195 -0.2500121171720817 C 2.5714187242506954 -0.36768197525922997 2.746584563866369 -0.4687876591104452 2.9310927431571736 -0.5752854845380999 L 3.2556511973703612 -0.7626290820960651 C 3.470694650307507 -0.8868906817957565 3.6528642153865065 -0.9920313839502386 3.844800221163507 -1.1028308054669607 L 4.143536981670203 -1.2752702813642114 L 4.143536981670203 -2.1956058524993303 L 3.9054103159170745 -2.058124418058307 C 3.7134258414517483 -1.9473492308857505 3.5312805107169094 -1.842208528731267 3.316237057779766 -1.7179469290315756 Z" fill="#09250f" transform="matrix(1,0,0,1,0,0)" fill-rule="nonzero"></path></g></g></g><defs><clipPath id="SvgjsClipPath1002"><path d=" M 0.5919817272987538 -4.35106900828476 h 3.551543137199368 v 4.10106900828476 h -3.551543137199368 Z"></path></clipPath><clipPath id="SvgjsClipPath10009c0a24d0-cedf-4394-a72a-ba12e826569d"><path d=" M 0.5919817272987538 -4.35106900828476 L 4.143524864498122 -4.35106900828476 L 4.143524864498122 -0.25 L 0.5919817272987538 -0.25 Z"></path></clipPath></defs></svg>